<svg width="44" height="42" fill="none" xmlns="http://www.w3.org/2000/svg"><g clip-path="url(#clip0_78_1488)" fill="#2AAC4A"><path d="M34.692 35c-.465 0-.846-.394-.846-.875v-5.403c0-.481.38-.875.846-.875.465 0 .846.394.846.875v5.403c0 .481-.38.875-.846.875zm0-26.097c-.465 0-.846-.394-.846-.875V5.25c0-1.925-1.523-3.5-3.385-3.5H5.077c-.466 0-.847-.394-.847-.875S4.611 0 5.077 0H30.46c2.793 0 5.077 2.362 5.077 5.25v2.778c0 .481-.38.875-.846.875z"/><path d="M38.923 42H13.538c-2.792 0-5.076-2.362-5.076-5.25V5.25c0-1.925-1.524-3.5-3.385-3.5-1.862 0-3.385 1.575-3.385 3.5V7h4.231c.465 0 .846.394.846.875s-.38.875-.846.875H.846C.381 8.75 0 8.356 0 7.875V5.25C0 2.362 2.285 0 5.077 0s5.077 2.362 5.077 5.25v31.5c0 1.925 1.523 3.5 3.385 3.5 1.861 0 3.384-1.575 3.384-3.5v-2.625c0-.481.38-.875.846-.875h25.385c.465 0 .846.394.846.875v2.625c0 2.888-2.285 5.25-5.077 5.25zm-21.598-1.75h21.598c1.862 0 3.385-1.575 3.385-3.5V35H18.615v1.75a5.331 5.331 0 01-1.29 3.5z"/><path d="M33 29.75c-6.071 0-11-5.097-11-11.375S26.929 7 33 7s11 5.097 11 11.375S39.071 29.75 33 29.75zm0-21c-5.14 0-9.308 4.31-9.308 9.625C23.692 23.691 27.86 28 33 28s9.308-4.31 9.308-9.625c0-5.316-4.168-9.625-9.308-9.625z"/><path d="M33 24.5c-.465 0-.846-.394-.846-.875v-7c0-.481.381-.875.846-.875.466 0 .847.394.847.875v7c0 .481-.381.875-.846.875z"/><path d="M34.693 24.5h-3.385c-.465 0-.846-.394-.846-.875s.38-.875.846-.875h3.385c.465 0 .846.394.846.875s-.38.875-.846.875zM33 17.5h-1.692c-.465 0-.846-.394-.846-.875s.38-.875.846-.875H33c.466 0 .846.394.846.875s-.38.875-.846.875zm0-3.062c.7 0 1.269-.588 1.269-1.313s-.568-1.313-1.27-1.313c-.7 0-1.269.588-1.269 1.313s.569 1.313 1.27 1.313zM22.846 8.75h-8.462c-.465 0-.846-.394-.846-.875s.38-.875.846-.875h8.462c.465 0 .846.394.846.875s-.38.875-.846.875zm-3.385 7h-5.077c-.465 0-.846-.394-.846-.875s.38-.875.846-.875h5.077c.466 0 .846.394.846.875s-.38.875-.846.875zm0 7h-5.077c-.465 0-.846-.394-.846-.875s.38-.875.846-.875h5.077c.466 0 .846.394.846.875s-.38.875-.846.875zm3.385 7h-8.462c-.465 0-.846-.394-.846-.875s.38-.875.846-.875h8.462c.465 0 .846.394.846.875s-.38.875-.846.875z"/></g><defs><clipPath id="clip0_78_1488"><path fill="#fff" d="M0 0h44v42H0z"/></clipPath></defs></svg>