<svg viewBox="0 0 32 26" fill="none" xmlns="http://www.w3.org/2000/svg"><path d="M20.675 10a8.675 8.675 0 11-17.35 0 8.675 8.675 0 0117.35 0z" stroke="#2AAC4A" stroke-width="1.4"/><mask id="a" maskUnits="userSpaceOnUse" x=".625" y="4.25" width="18" height="12" fill="#000"><path fill="#fff" d="M.625 4.25h18v12h-18z"/><path fill-rule="evenodd" clip-rule="evenodd" d="M2.625 10c0 2.068 1.639 3.75 3.653 3.75 1.731 0 3.184-1.243 3.558-2.906h1.61v1.38h1.644v-1.38h1.154v1.361h1.645v-1.36h.486v-1.69h-6.54C9.463 7.494 8.01 6.25 6.279 6.25c-2.014 0-3.653 1.682-3.653 3.75zm3.59-2.521c1.32 0 2.394 1.102 2.394 2.457 0 1.355-1.074 2.457-2.394 2.457s-2.393-1.102-2.393-2.457c0-1.355 1.073-2.457 2.393-2.457z"/></mask><path fill-rule="evenodd" clip-rule="evenodd" d="M2.625 10c0 2.068 1.639 3.75 3.653 3.75 1.731 0 3.184-1.243 3.558-2.906h1.61v1.38h1.644v-1.38h1.154v1.361h1.645v-1.36h.486v-1.69h-6.54C9.463 7.494 8.01 6.25 6.279 6.25c-2.014 0-3.653 1.682-3.653 3.75zm3.59-2.521c1.32 0 2.394 1.102 2.394 2.457 0 1.355-1.074 2.457-2.394 2.457s-2.393-1.102-2.393-2.457c0-1.355 1.073-2.457 2.393-2.457z" fill="#2AAC4A"/><path d="M9.836 10.844l-1.951-.439.351-1.56h1.6v2zm1.61 0v-2h2v2h-2zm0 1.38v2h-2v-2h2zm1.644 0h2v2h-2v-2zm0-1.38h-2v-2h2v2zm1.154 0v-2h2v2h-2zm0 1.361v2h-2v-2h2zm1.645 0h2v2h-2v-2zm0-1.36h-2v-2h2v2zm.486 0h2v2h-2v-2zm0-1.69v-2h2v2h-2zm-6.54 0v2H8.237l-.351-1.56 1.95-.44zM6.279 6.25v-2 2zm0 9.5C3.11 15.75.625 13.122.625 10h4c0 1.013.792 1.75 1.653 1.75v4zm5.51-4.466C11.22 13.802 9 15.75 6.277 15.75v-4c.739 0 1.425-.538 1.607-1.345l3.902.879zm-.342 1.56h-1.61v-4h1.61v4zm-2-.62v-1.38h4v1.38h-4zm3.644 2h-1.644v-4h1.644v4zm2-3.38v1.38h-4v-1.38h4zm-.846 2H13.09v-4h1.154v4zm-2-.639v-1.36h4v1.36h-4zm3.645 2h-1.645v-4h1.645v4zm2-3.36v1.36h-4v-1.36h4zm-1.514 2h-.486v-4h.486v4zm2-3.69v1.69h-4v-1.69h4zm-8.54-2h6.54v4h-6.54v-4zM6.279 4.25c2.723 0 4.942 1.948 5.51 4.467l-3.903.878c-.182-.807-.868-1.345-1.607-1.345v-4zM.625 10c0-3.123 2.485-5.75 5.653-5.75v4c-.86 0-1.653.737-1.653 1.75h-4zm5.984-.064c0-.3-.228-.457-.394-.457v-4c2.474 0 4.394 2.047 4.394 4.457h-4zm-.394.457c.166 0 .394-.157.394-.457h4c0 2.41-1.92 4.457-4.394 4.457v-4zm-.393-.457c0 .3.227.457.393.457v4c-2.473 0-4.393-2.048-4.393-4.457h4zm.393-.457c-.166 0-.393.157-.393.457h-4c0-2.41 1.92-4.457 4.393-4.457v4z" fill="#fff" mask="url(#a)"/></svg>