<svg width="20" height="20" viewBox="0 0 20 20" fill="none" xmlns="http://www.w3.org/2000/svg">
<path fill-rule="evenodd" clip-rule="evenodd" d="M9.78222 1.66663C14.2572 1.66663 17.8972 5.30663 17.8972 9.78163C17.8972 11.8929 17.087 13.8185 15.7611 15.2637L18.3701 17.8672C18.6142 18.1114 18.615 18.5064 18.3709 18.7505C18.2492 18.8739 18.0884 18.9347 17.9284 18.9347C17.7692 18.9347 17.6092 18.8739 17.4867 18.7522L14.8463 16.1191C13.4573 17.2315 11.6961 17.8975 9.78222 17.8975C5.30722 17.8975 1.66638 14.2566 1.66638 9.78163C1.66638 5.30663 5.30722 1.66663 9.78222 1.66663ZM9.78222 2.91663C5.99638 2.91663 2.91638 5.99579 2.91638 9.78163C2.91638 13.5675 5.99638 16.6475 9.78222 16.6475C13.5672 16.6475 16.6472 13.5675 16.6472 9.78163C16.6472 5.99579 13.5672 2.91663 9.78222 2.91663Z" fill="#2AAC4A"/>
</svg>
