<svg width="44" height="42" viewBox="0 0 44 42" fill="none" xmlns="http://www.w3.org/2000/svg">
<g clip-path="url(#clip0_78_1488)">
<path d="M34.6919 35C34.2265 35 33.8457 34.6062 33.8457 34.125V28.7219C33.8457 28.2406 34.2265 27.8469 34.6919 27.8469C35.1572 27.8469 35.538 28.2406 35.538 28.7219V34.125C35.538 34.6062 35.1572 35 34.6919 35Z" fill="#2AAC4A"/>
<path d="M34.692 8.90312C34.2266 8.90312 33.8459 8.50937 33.8459 8.02812V5.25C33.8459 3.325 32.3228 1.75 30.4612 1.75H5.07662C4.61124 1.75 4.23047 1.35625 4.23047 0.875C4.23047 0.39375 4.61124 0 5.07662 0H30.4612C33.2535 0 35.5382 2.3625 35.5382 5.25V8.02812C35.5382 8.50937 35.1574 8.90312 34.692 8.90312Z" fill="#2AAC4A"/>
<path d="M38.9231 42H13.5385C10.7462 42 8.46154 39.6375 8.46154 36.75V5.25C8.46154 3.325 6.93846 1.75 5.07692 1.75C3.21538 1.75 1.69231 3.325 1.69231 5.25V7H5.92308C6.38846 7 6.76923 7.39375 6.76923 7.875C6.76923 8.35625 6.38846 8.75 5.92308 8.75H0.846154C0.380769 8.75 0 8.35625 0 7.875V5.25C0 2.3625 2.28462 0 5.07692 0C7.86923 0 10.1538 2.3625 10.1538 5.25V36.75C10.1538 38.675 11.6769 40.25 13.5385 40.25C15.4 40.25 16.9231 38.675 16.9231 36.75V34.125C16.9231 33.6437 17.3038 33.25 17.7692 33.25H43.1538C43.6192 33.25 44 33.6437 44 34.125V36.75C44 39.6375 41.7154 42 38.9231 42ZM17.325 40.25H38.9231C40.7846 40.25 42.3077 38.675 42.3077 36.75V35H18.6154V36.75C18.6154 38.0844 18.1288 39.3312 17.325 40.25Z" fill="#2AAC4A"/>
<path d="M33 29.75C26.9288 29.75 22 24.6531 22 18.375C22 12.0969 26.9288 7 33 7C39.0712 7 44 12.0969 44 18.375C44 24.6531 39.0712 29.75 33 29.75ZM33 8.75C27.8596 8.75 23.6923 13.0594 23.6923 18.375C23.6923 23.6906 27.8596 28 33 28C38.1404 28 42.3077 23.6906 42.3077 18.375C42.3077 13.0594 38.1404 8.75 33 8.75Z" fill="#2AAC4A"/>
<path d="M33.0005 24.5C32.5351 24.5 32.1543 24.1062 32.1543 23.625V16.625C32.1543 16.1437 32.5351 15.75 33.0005 15.75C33.4658 15.75 33.8466 16.1437 33.8466 16.625V23.625C33.8466 24.1062 33.4658 24.5 33.0005 24.5Z" fill="#2AAC4A"/>
<path d="M34.6927 24.5H31.3081C30.8427 24.5 30.4619 24.1062 30.4619 23.625C30.4619 23.1437 30.8427 22.75 31.3081 22.75H34.6927C35.1581 22.75 35.5388 23.1437 35.5388 23.625C35.5388 24.1062 35.1581 24.5 34.6927 24.5Z" fill="#2AAC4A"/>
<path d="M33.0004 17.5H31.3081C30.8427 17.5 30.4619 17.1062 30.4619 16.625C30.4619 16.1437 30.8427 15.75 31.3081 15.75H33.0004C33.4658 15.75 33.8465 16.1437 33.8465 16.625C33.8465 17.1062 33.4658 17.5 33.0004 17.5Z" fill="#2AAC4A"/>
<path d="M32.9997 14.4375C33.7007 14.4375 34.2689 13.8499 34.2689 13.125C34.2689 12.4001 33.7007 11.8125 32.9997 11.8125C32.2987 11.8125 31.7305 12.4001 31.7305 13.125C31.7305 13.8499 32.2987 14.4375 32.9997 14.4375Z" fill="#2AAC4A"/>
<path d="M22.8458 8.75H14.3842C13.9189 8.75 13.5381 8.35625 13.5381 7.875C13.5381 7.39375 13.9189 7 14.3842 7H22.8458C23.3112 7 23.6919 7.39375 23.6919 7.875C23.6919 8.35625 23.3112 8.75 22.8458 8.75Z" fill="#2AAC4A"/>
<path d="M19.4612 15.75H14.3842C13.9189 15.75 13.5381 15.3562 13.5381 14.875C13.5381 14.3937 13.9189 14 14.3842 14H19.4612C19.9265 14 20.3073 14.3937 20.3073 14.875C20.3073 15.3562 19.9265 15.75 19.4612 15.75Z" fill="#2AAC4A"/>
<path d="M19.4612 22.75H14.3842C13.9189 22.75 13.5381 22.3562 13.5381 21.875C13.5381 21.3937 13.9189 21 14.3842 21H19.4612C19.9265 21 20.3073 21.3937 20.3073 21.875C20.3073 22.3562 19.9265 22.75 19.4612 22.75Z" fill="#2AAC4A"/>
<path d="M22.8458 29.75H14.3842C13.9189 29.75 13.5381 29.3562 13.5381 28.875C13.5381 28.3937 13.9189 28 14.3842 28H22.8458C23.3112 28 23.6919 28.3937 23.6919 28.875C23.6919 29.3562 23.3112 29.75 22.8458 29.75Z" fill="#2AAC4A"/>
</g>
<defs>
<clipPath id="clip0_78_1488">
<rect width="44" height="42" fill="white"/>
</clipPath>
</defs>
</svg>
