<svg viewBox="0 0 32 26" fill="none" xmlns="http://www.w3.org/2000/svg">
<path d="M20.675 10C20.675 14.7911 16.7911 18.675 12 18.675C7.20893 18.675 3.325 14.7911 3.325 10C3.325 5.20893 7.20893 1.325 12 1.325C16.7911 1.325 20.675 5.20893 20.675 10Z" stroke="#2AAC4A" stroke-width="1.4"/>
<mask id="path-2-outside-1" maskUnits="userSpaceOnUse" x="0.625" y="4.25" width="18" height="12" fill="black">
<rect fill="white" x="0.625" y="4.25" width="18" height="12"/>
<path fill-rule="evenodd" clip-rule="evenodd" d="M2.625 9.99997C2.625 12.0677 4.26363 13.75 6.27775 13.75C8.00903 13.75 9.4618 12.5066 9.83598 10.8443H11.4456V12.2236H13.0904V10.8443H14.2439V12.2051H15.8886V10.8443H16.375V9.15571H9.83592C9.46175 7.49338 8.00897 6.25006 6.27775 6.25C4.26363 6.25 2.625 7.93221 2.625 9.99997ZM6.21521 7.47869C7.53499 7.47869 8.6087 8.581 8.6087 9.93593C8.6087 11.2909 7.53499 12.3932 6.21521 12.3932C4.89543 12.3932 3.82172 11.2909 3.82172 9.93593C3.82172 8.581 4.89543 7.47869 6.21521 7.47869Z"/>
</mask>
<path fill-rule="evenodd" clip-rule="evenodd" d="M2.625 9.99997C2.625 12.0677 4.26363 13.75 6.27775 13.75C8.00903 13.75 9.4618 12.5066 9.83598 10.8443H11.4456V12.2236H13.0904V10.8443H14.2439V12.2051H15.8886V10.8443H16.375V9.15571H9.83592C9.46175 7.49338 8.00897 6.25006 6.27775 6.25C4.26363 6.25 2.625 7.93221 2.625 9.99997ZM6.21521 7.47869C7.53499 7.47869 8.6087 8.581 8.6087 9.93593C8.6087 11.2909 7.53499 12.3932 6.21521 12.3932C4.89543 12.3932 3.82172 11.2909 3.82172 9.93593C3.82172 8.581 4.89543 7.47869 6.21521 7.47869Z" fill="#2AAC4A"/>
<path d="M9.83598 10.8443L7.8848 10.4051L8.23612 8.84429H9.83598V10.8443ZM11.4456 10.8443V8.84429H13.4456V10.8443H11.4456ZM11.4456 12.2236V14.2236H9.44559V12.2236H11.4456ZM13.0904 12.2236H15.0904V14.2236H13.0904V12.2236ZM13.0904 10.8443H11.0904V8.84429H13.0904V10.8443ZM14.2439 10.8443V8.84429H16.2439V10.8443H14.2439ZM14.2439 12.2051V14.2051H12.2439V12.2051H14.2439ZM15.8886 12.2051H17.8886V14.2051H15.8886V12.2051ZM15.8886 10.8443H13.8886V8.84429H15.8886V10.8443ZM16.375 10.8443H18.375V12.8443H16.375V10.8443ZM16.375 9.15571V7.15571H18.375V9.15571H16.375ZM9.83592 9.15571V11.1557H8.23607L7.88474 9.59491L9.83592 9.15571ZM6.27775 6.25V4.25H6.27781L6.27775 6.25ZM6.27775 15.75C3.10983 15.75 0.625 13.1224 0.625 9.99997H4.625C4.625 11.013 5.41742 11.75 6.27775 11.75V15.75ZM11.7872 11.2835C11.2204 13.8015 9.00142 15.75 6.27775 15.75V11.75C7.01663 11.75 7.70323 11.2117 7.8848 10.4051L11.7872 11.2835ZM11.4456 12.8443H9.83598V8.84429H11.4456V12.8443ZM9.44559 12.2236V10.8443H13.4456V12.2236H9.44559ZM13.0904 14.2236H11.4456V10.2236H13.0904V14.2236ZM15.0904 10.8443V12.2236H11.0904V10.8443H15.0904ZM14.2439 12.8443H13.0904V8.84429H14.2439V12.8443ZM12.2439 12.2051V10.8443H16.2439V12.2051H12.2439ZM15.8886 14.2051H14.2439V10.2051H15.8886V14.2051ZM17.8886 10.8443V12.2051H13.8886V10.8443H17.8886ZM16.375 12.8443H15.8886V8.84429H16.375V12.8443ZM18.375 9.15571V10.8443H14.375V9.15571H18.375ZM9.83592 7.15571L16.375 7.15571V11.1557H9.83592V7.15571ZM6.27781 4.25C9.00135 4.25009 11.2203 6.19847 11.7871 8.71652L7.88474 9.59491C7.70318 8.78829 7.0166 8.25002 6.27768 8.25L6.27781 4.25ZM0.625 9.99997C0.625 6.87748 3.10987 4.25 6.27775 4.25V8.25C5.41739 8.25 4.625 8.98694 4.625 9.99997H0.625ZM6.6087 9.93593C6.6087 9.63569 6.38119 9.47869 6.21521 9.47869V5.47869C8.68879 5.47869 10.6087 7.52631 10.6087 9.93593H6.6087ZM6.21521 10.3932C6.38112 10.3932 6.6087 10.2362 6.6087 9.93593H10.6087C10.6087 12.3455 8.68886 14.3932 6.21521 14.3932V10.3932ZM5.82172 9.93593C5.82172 10.2362 6.0493 10.3932 6.21521 10.3932V14.3932C3.74156 14.3932 1.82172 12.3455 1.82172 9.93593H5.82172ZM6.21521 9.47869C6.04923 9.47869 5.82172 9.63569 5.82172 9.93593H1.82172C1.82172 7.52631 3.74163 5.47869 6.21521 5.47869V9.47869Z" fill="white" mask="url(#path-2-outside-1)"/>
</svg>
